#define font_width 56
#define font_height 156
static const unsigned char font_bits[] = {
  0x00, 0x00, 0x05, 0x00, 0x00, 0x00, 0x10, 0x00, 0x04, 0x05, 0x85, 0x10, 
  0x31, 0x10, 0x00, 0x04, 0x05, 0xC5, 0xAB, 0x48, 0x10, 0x00, 0x04, 0xC0, 
  0xAF, 0xA8, 0x48, 0x00, 0x00, 0x04, 0x80, 0xA2, 0x50, 0x30, 0x01, 0x00, 
  0x04, 0x80, 0xC2, 0x41, 0x49, 0x01, 0x00, 0x04, 0xE0, 0x87, 0xA2, 0x8A, 
  0x00, 0x00, 0x00, 0x40, 0x81, 0xA2, 0x8A, 0x00, 0x00, 0x04, 0x40, 0xE1, 
  0x11, 0x71, 0x01, 0x00, 0x00, 0x00, 0x80, 0x00, 0x00, 0x00, 0x00, 0x00, 
  0x00, 0x00, 0x00, 0x00, 0x00, 0x00, 0x00, 0x00, 0x00, 0x00, 0x00, 0x00, 
  0x00, 0x00, 0x00, 0x00, 0x00, 0x00, 0x00, 0x10, 0x02, 0x00, 0x00, 0x00, 
  0x00, 0x40, 0x08, 0x04, 0x00, 0x00, 0x00, 0x00, 0x40, 0x08, 0x04, 0x00, 
  0x00, 0x00, 0x00, 0x20, 0x04, 0x08, 0x02, 0x01, 0x00, 0x00, 0x20, 0x04, 
  0x88, 0x0A, 0x01, 0x00, 0x00, 0x10, 0x04, 0x08, 0xC7, 0x07, 0xF0, 0x01, 
  0x10, 0x04, 0x88, 0x0A, 0x01, 0x00, 0x00, 0x08, 0x04, 0x08, 0x02, 0x81, 
  0x00, 0x20, 0x08, 0x08, 0x04, 0x00, 0x80, 0x00, 0x20, 0x04, 0x08, 0x04, 
  0x00, 0x80, 0x00, 0x00, 0x04, 0x10, 0x02, 0x00, 0x40, 0x00, 0x00, 0x00, 
  0x00, 0x00, 0x00, 0x00, 0x00, 0x00, 0x00, 0x00, 0x00, 0x00, 0x00, 0x00, 
  0x00, 0x00, 0x00, 0x00, 0x00, 0x00, 0x00, 0x00, 0x00, 0x1C, 0x04, 0x87, 
  0x03, 0xF2, 0x61, 0x7C, 0x22, 0x86, 0x48, 0x04, 0x13, 0x10, 0x40, 0x32, 
  0x05, 0x08, 0x84, 0x12, 0x08, 0x20, 0x2A, 0x04, 0x04, 0x43, 0xF2, 0x78, 
  0x20, 0x2A, 0x04, 0x02, 0x24, 0x02, 0x89, 0x10, 0x26, 0x04, 0x01, 0xE4, 
  0x07, 0x89, 0x10, 0x22, 0x84, 0x40, 0x04, 0x12, 0x89, 0x08, 0x1C, 0x9F, 
  0x8F, 0x03, 0xE2, 0x70, 0x08, 0x00, 0x00, 0x00, 0x00, 0x00, 0x00, 0x00, 
  0x00, 0x00, 0x00, 0x00, 0x00, 0x00, 0x00, 0x00, 0x00, 0x00, 0x00, 0x00, 
  0x00, 0x00, 0x00, 0x00, 0x00, 0x00, 0x00, 0x00, 0x00, 0x00, 0x00, 0x00, 
  0x00, 0x00, 0x00, 0x00, 0x1C, 0x0E, 0x00, 0x00, 0x00, 0x00, 0x38, 0x22, 
  0x11, 0x00, 0x00, 0x00, 0x00, 0x44, 0x22, 0x11, 0x02, 0x01, 0x03, 0x18, 
  0x40, 0x1C, 0x11, 0x02, 0xC1, 0xF0, 0x63, 0x20, 0x22, 0x1E, 0x00, 0x30, 
  0x00, 0x80, 0x11, 0x22, 0x10, 0x00, 0xC0, 0xF0, 0x63, 0x10, 0x22, 0x08, 
  0x02, 0x01, 0x03, 0x18, 0x00, 0x1C, 0x06, 0x02, 0x01, 0x00, 0x00, 0x10, 
  0x00, 0x00, 0x00, 0x01, 0x00, 0x00, 0x00, 0x00, 0x00, 0x80, 0x00, 0x00, 
  0x00, 0x00, 0x00, 0x00, 0x00, 0x00, 0x00, 0x00, 0x00, 0x00, 0x00, 0x00, 
  0x00, 0x00, 0x00, 0x00, 0x00, 0x00, 0x00, 0x00, 0x00, 0x00, 0x00, 0x1C, 
  0x8C, 0x87, 0xE7, 0xF1, 0xF9, 0x70, 0x22, 0x8C, 0x48, 0x20, 0x12, 0x08, 
  0x88, 0x59, 0x92, 0x48, 0x20, 0x14, 0x08, 0x04, 0x55, 0x92, 0x4F, 0x20, 
  0xF4, 0x78, 0x04, 0x55, 0x9E, 0x50, 0x20, 0x14, 0x08, 0xE4, 0x39, 0xA1, 
  0x50, 0x20, 0x14, 0x08, 0x84, 0x02, 0xA1, 0x50, 0x20, 0x12, 0x08, 0x88, 
  0x3C, 0xA1, 0x8F, 0xE7, 0xF1, 0x09, 0x70, 0x00, 0x00, 0x00, 0x00, 0x00, 
  0x00, 0x00, 0x00, 0x00, 0x00, 0x00, 0x00, 0x00, 0x00, 0x00, 0x00, 0x00, 
  0x00, 0x00, 0x00, 0x00, 0x00, 0x00, 0x00, 0x00, 0x00, 0x00, 0x00, 0x00, 
  0x00, 0x00, 0x00, 0x00, 0x00, 0x00, 0x42, 0x0E, 0x47, 0x28, 0x18, 0x1B, 
  0x31, 0x42, 0x04, 0x44, 0x24, 0x18, 0x1B, 0x49, 0x42, 0x04, 0x44, 0x22, 
  0xA8, 0x2A, 0x85, 0x7E, 0x04, 0x44, 0x21, 0xA8, 0x2A, 0x85, 0x42, 0x04, 
  0xC4, 0x21, 0x48, 0x4A, 0x85, 0x42, 0x04, 0x44, 0x22, 0x48, 0x4A, 0x85, 
  0x42, 0x04, 0x44, 0x24, 0x08, 0x8A, 0x49, 0x42, 0x8E, 0x43, 0xE8, 0x0B, 
  0x8A, 0x31, 0x00, 0x00, 0x00, 0x00, 0x00, 0x00, 0x00, 0x00, 0x00, 0x00, 
  0x00, 0x00, 0x00, 0x00, 0x00, 0x00, 0x00, 0x00, 0x00, 0x00, 0x00, 0x00, 
  0x00, 0x00, 0x00, 0x00, 0x00, 0x00, 0x00, 0x00, 0x00, 0x00, 0x00, 0x00, 
  0x00, 0x1E, 0x8C, 0x87, 0xF7, 0x17, 0x06, 0x83, 0x22, 0x92, 0x48, 0x88, 
  0x10, 0x06, 0x93, 0x22, 0xA1, 0x48, 0x80, 0x10, 0x8A, 0x92, 0x22, 0xA1, 
  0x88, 0x81, 0x10, 0x8A, 0xAA, 0x1E, 0xA1, 0x07, 0x86, 0x10, 0x52, 0xAA, 
  0x02, 0xA1, 0x04, 0x88, 0x10, 0x52, 0x6C, 0x02, 0x92, 0x48, 0x88, 0x10, 
  0x22, 0x44, 0x02, 0xAC, 0x90, 0x87, 0xE0, 0x21, 0x44, 0x00, 0x20, 0x00, 
  0x00, 0x00, 0x00, 0x00, 0x00, 0x00, 0x00, 0x00, 0x00, 0x00, 0x00, 0x00, 
  0x00, 0x00, 0x00, 0x00, 0x00, 0x00, 0x00, 0x00, 0x00, 0x00, 0x00, 0x00, 
  0x00, 0x00, 0x00, 0x80, 0x23, 0xE0, 0x20, 0x00, 0xC2, 0xA0, 0x9F, 0x20, 
  0x80, 0x20, 0x00, 0xC2, 0x20, 0x90, 0x40, 0x80, 0x50, 0x00, 0x24, 0x11, 
  0x88, 0x40, 0x80, 0x50, 0x00, 0x18, 0x0A, 0x84, 0x80, 0x80, 0x88, 0x00, 
  0x18, 0x04, 0x82, 0x80, 0x80, 0x88, 0x00, 0x24, 0x04, 0x81, 0x00, 0x81, 
  0x00, 0x00, 0x42, 0x84, 0x80, 0x00, 0x81, 0x00, 0x00, 0x42, 0x84, 0x9F, 
  0x00, 0x82, 0x00, 0x00, 0x00, 0x00, 0x80, 0x00, 0x82, 0x00, 0x00, 0x00, 
  0x00, 0x80, 0x03, 0xE0, 0x00, 0xFE, 0x00, 0x00, 0x00, 0x00, 0x00, 0x00, 
  0x00, 0x00, 0x00, 0x00, 0x00, 0x00, 0x00, 0x00, 0x04, 0x80, 0x00, 0x00, 
  0x02, 0xE0, 0x00, 0x08, 0x80, 0x00, 0x00, 0x02, 0x10, 0x00, 0x00, 0x80, 
  0x00, 0x00, 0x02, 0x10, 0x00, 0x00, 0x8E, 0x87, 0xC3, 0xE3, 0x78, 0x78, 
  0x00, 0x90, 0x48, 0x24, 0x12, 0x11, 0x44, 0x00, 0x9E, 0x48, 0x20, 0xF2, 
  0x11, 0x44, 0x00, 0x91, 0x48, 0x20, 0x12, 0x10, 0x44, 0x00, 0x91, 0x48, 
  0x24, 0x12, 0x11, 0x44, 0x00, 0x9E, 0x87, 0xC3, 0xE3, 0x10, 0x78, 0x00, 
  0x00, 0x00, 0x00, 0x00, 0x00, 0x40, 0x00, 0x00, 0x00, 0x00, 0x00, 0x00, 
  0x40, 0x00, 0x00, 0x00, 0x00, 0x00, 0x00, 0x38, 0x00, 0x00, 0x00, 0x00, 
  0x00, 0x00, 0x00, 0x02, 0x04, 0x44, 0xC0, 0x00, 0x00, 0x00, 0x02, 0x00, 
  0x40, 0x80, 0x00, 0x00, 0x00, 0x02, 0x00, 0x40, 0x80, 0x00, 0x00, 0x00, 
  0x1E, 0x06, 0x46, 0x84, 0xB8, 0x79, 0x38, 0x22, 0x04, 0x44, 0x82, 0x48, 
  0x8A, 0x44, 0x22, 0x04, 0x44, 0x81, 0x48, 0x8A, 0x44, 0x22, 0x04, 0xC4, 
  0x81, 0x48, 0x8A, 0x44, 0x22, 0x04, 0x44, 0x82, 0x48, 0x8A, 0x44, 0x22, 
  0x04, 0x44, 0x84, 0x48, 0x8A, 0x38, 0x00, 0x00, 0x04, 0x00, 0x00, 0x00, 
  0x00, 0x00, 0x80, 0x03, 0x00, 0x00, 0x00, 0x00, 0x00, 0x00, 0x00, 0x00, 
  0x00, 0x00, 0x00, 0x00, 0x00, 0x00, 0x00, 0x00, 0x00, 0x00, 0x00, 0x00, 
  0x00, 0x00, 0x00, 0x00, 0x00, 0x00, 0x00, 0x00, 0x40, 0x00, 0x00, 0x00, 
  0x00, 0x00, 0x00, 0x40, 0x00, 0x00, 0x00, 0x1E, 0x9E, 0x86, 0xC7, 0x13, 
  0x89, 0x82, 0x22, 0x91, 0x49, 0x40, 0x10, 0x89, 0x92, 0x22, 0x91, 0x80, 
  0x41, 0x10, 0x51, 0x92, 0x22, 0x91, 0x00, 0x42, 0x10, 0x51, 0xAA, 0x22, 
  0x91, 0x00, 0x44, 0x10, 0x21, 0x6C, 0x1E, 0x9E, 0xC0, 0x83, 0xE3, 0x21, 
  0x44, 0x02, 0x10, 0x00, 0x00, 0x00, 0x00, 0x00, 0x02, 0x10, 0x00, 0x00, 
  0x00, 0x00, 0x00, 0x02, 0x10, 0x00, 0x00, 0x00, 0x00, 0x00, 0x00, 0x00, 
  0x00, 0x00, 0x00, 0x00, 0x00, 0x00, 0x00, 0x00, 0x86, 0x30, 0x00, 0xFC, 
  0x00, 0x00, 0x00, 0x81, 0x40, 0x00, 0x84, 0x00, 0x00, 0x00, 0x81, 0x40, 
  0x00, 0x84, 0x22, 0x91, 0x0F, 0x81, 0x40, 0x00, 0x84, 0x14, 0x11, 0x08, 
  0x81, 0x40, 0x38, 0x85, 0x08, 0x11, 0xC4, 0x80, 0x80, 0xE5, 0x84, 0x08, 
  0x11, 0x02, 0x81, 0x40, 0x00, 0x84, 0x14, 0x11, 0x01, 0x81, 0x40, 0x00, 
  0x84, 0x22, 0x9E, 0x0F, 0x81, 0x40, 0x00, 0x84, 0x00, 0x10, 0x00, 0x81, 
  0x40, 0x00, 0x84, 0x00, 0x10, 0x00, 0x86, 0x30, 0x00, 0x84, 0x00, 0x0E, 
  0x00, 0x00, 0x00, 0x00, 0xFC, 0x00, 0x00, 0x00, 0x00, 0x00, 0x00, 0x00, 
  };
